<svg xmlns="http://www.w3.org/2000/svg">
<symbol id="counter" width="104" height="104" viewBox="0 0 104 104">
    <path d="M8 54H96V88C96 91.3137 93.3137 94 90 94H14C10.6863 94 8 91.3137 8 88V54Z" fill="#8E9195"/>
    <rect x="8" y="12" width="88" height="80" rx="6" fill="#E1E2E4"/>
    <path d="M8 18C8 14.6863 10.6863 12 14 12H90C93.3137 12 96 14.6863 96 18V28H8V18Z" fill="white"/>
    <rect x="66" y="18" width="24" height="4" rx="2" fill="#8E9195"/>
    <rect x="44" y="18" width="4" height="4" rx="2" fill="#8E9195"/>
    <rect x="50" y="18" width="4" height="4" rx="2" fill="#8E9195"/>
    <rect x="56" y="18" width="4" height="4" rx="2" fill="#8E9195"/>
    <rect x="12" y="16" width="8" height="8" rx="4" fill="var(--bs-primary)" />
    <path d="M35 44C35 41.7909 36.7909 40 39 40H65C67.2091 40 69 41.7909 69 44V76C69 78.2091 67.2091 80 65 80H39C36.7909 80 35 78.2091 35 76V44Z" fill="white"/>
    <path d="M52.4983 72.77C54.2039 72.77 55.7046 72.471 57.0004 71.8729C58.3073 71.2748 59.3317 70.4442 60.0738 69.3809C60.8158 68.3177 61.1869 67.105 61.1869 65.7427V65.7095C61.1869 64.026 60.6497 62.6748 59.5754 61.6559C58.5011 60.637 57.0834 60.0555 55.3225 59.9115V59.8285C56.2971 59.6291 57.161 59.2802 57.9141 58.7818C58.6783 58.2724 59.2764 57.6411 59.7083 56.888C60.1513 56.1238 60.3728 55.2433 60.3728 54.2465V54.2133C60.3728 52.9839 60.0461 51.9041 59.3927 50.9737C58.7392 50.0434 57.82 49.318 56.6349 48.7974C55.4498 48.2658 54.0599 48 52.465 48C50.9034 48 49.5245 48.2769 48.3284 48.8307C47.1433 49.3733 46.1908 50.1431 45.471 51.1399C44.7621 52.1366 44.3413 53.3051 44.2084 54.6452L44.1917 54.8279H47.7137L47.7303 54.6618C47.8078 53.9198 48.0515 53.2774 48.4613 52.7347C48.8711 52.192 49.4193 51.7767 50.106 51.4887C50.7927 51.2008 51.579 51.0568 52.465 51.0568C53.3732 51.0568 54.1429 51.2008 54.7742 51.4887C55.4166 51.7656 55.8984 52.1754 56.2196 52.7181C56.5518 53.2608 56.718 53.9198 56.718 54.695V54.7283C56.718 55.4703 56.5241 56.1293 56.1365 56.7052C55.7599 57.2811 55.2228 57.7352 54.525 58.0675C53.8384 58.3887 53.0409 58.5493 52.1328 58.5493H49.3252V61.4732H52.2491C53.8439 61.4732 55.101 61.8386 56.0202 62.5696C56.9395 63.2895 57.3991 64.3251 57.3991 65.6762V65.7095C57.3991 66.4737 57.1942 67.1548 56.7844 67.7529C56.3746 68.3509 55.7987 68.8216 55.0567 69.165C54.3257 69.4972 53.4729 69.6634 52.4983 69.6634C51.5015 69.6634 50.6265 69.5083 49.8734 69.1982C49.1314 68.8881 48.5333 68.4617 48.0792 67.919C47.6362 67.3652 47.3759 66.7395 47.2984 66.0417L47.2818 65.859H43.6934L43.71 66.0583C43.8207 67.3652 44.2471 68.5281 44.9892 69.5471C45.7312 70.5549 46.7391 71.3468 48.0127 71.9227C49.2975 72.4876 50.7927 72.77 52.4983 72.77Z" fill="#2E3134"/>
    <path fill-rule="evenodd" clip-rule="evenodd" d="M81.9999 52C86.4183 52 90 55.5817 90 60C90 64.4183 86.4183 68 81.9999 68C77.5817 68 74 64.4183 74 60C74 55.5817 77.5817 52 81.9999 52Z" fill="var(--bs-primary)" />
    <path fill-rule="evenodd" clip-rule="evenodd" d="M83 56C83 55.4477 82.5523 55 82 55C81.4477 55 81 55.4477 81 56V59H78C77.4477 59 77 59.4477 77 60C77 60.5523 77.4477 61 78 61H81V64C81 64.5523 81.4477 65 82 65C82.5523 65 83 64.5523 83 64V61H86C86.5523 61 87 60.5523 87 60C87 59.4477 86.5523 59 86 59H83V56Z" fill="white"/>
    <path fill-rule="evenodd" clip-rule="evenodd" d="M21.9999 52C26.4183 52 30 55.5817 30 60C30 64.4183 26.4183 68 21.9999 68C17.5817 68 14 64.4183 14 60C14 55.5817 17.5817 52 21.9999 52Z" fill="#C5C7C9"/>
    <path d="M17 60C17 59.4477 17.4477 59 18 59H26C26.5523 59 27 59.4477 27 60C27 60.5523 26.5523 61 26 61H18C17.4477 61 17 60.5523 17 60Z" fill="white"/>
</symbol>
<symbol id="weather" width="104" height="104" viewBox="0 0 104 104">
    <path d="M74.5994 18.1863L72 12L69.4006 18.1863C70.2494 18.0635 71.1173 18 72 18C72.8827 18 73.7506 18.0635 74.5994 18.1863Z" fill="#FFDA6A"/>
    <path d="M76.4171 18.546C78.1282 18.9776 79.7418 19.6543 81.2185 20.5365L81.1844 13.8269L76.4171 18.546Z" fill="#FFDA6A"/>
    <path d="M82.7568 21.5663C84.1524 22.6081 85.3919 23.8476 86.4337 25.2432L88.9706 19.0294L82.7568 21.5663Z" fill="#FFDA6A"/>
    <path d="M87.4635 26.7815C88.3457 28.2582 89.0224 29.8718 89.454 31.5829L94.1731 26.8156L87.4635 26.7815Z" fill="#FFDA6A"/>
    <path d="M89.8137 33.4006C89.9365 34.2494 90 35.1173 90 36C90 36.8827 89.9365 37.7506 89.8137 38.5994L96 36L89.8137 33.4006Z" fill="#FFDA6A"/>
    <path d="M89.454 40.4171C89.0224 42.1282 88.3457 43.7418 87.4635 45.2185L94.1731 45.1844L89.454 40.4171Z" fill="#FFDA6A"/>
    <path d="M86.4337 46.7568C85.3919 48.1524 84.1524 49.3919 82.7568 50.4337L88.9706 52.9706L86.4337 46.7568Z" fill="#FFDA6A"/>
    <path d="M81.2185 51.4635C79.7418 52.3457 78.1282 53.0224 76.4171 53.454L81.1844 58.1731L81.2185 51.4635Z" fill="#FFDA6A"/>
    <path d="M74.5994 53.8137C73.7506 53.9365 72.8827 54 72 54C71.1173 54 70.2494 53.9365 69.4006 53.8137L72 60L74.5994 53.8137Z" fill="#FFDA6A"/>
    <path d="M67.5829 53.454C65.8718 53.0224 64.2582 52.3457 62.7815 51.4635L62.8156 58.1731L67.5829 53.454Z" fill="#FFDA6A"/>
    <path d="M61.2432 50.4337C59.8476 49.3919 58.6081 48.1524 57.5663 46.7568L55.0294 52.9706L61.2432 50.4337Z" fill="#FFDA6A"/>
    <path d="M56.5365 45.2185C55.6543 43.7418 54.9776 42.1282 54.546 40.4171L49.8269 45.1844L56.5365 45.2185Z" fill="#FFDA6A"/>
    <path d="M54.1863 38.5994C54.0635 37.7506 54 36.8827 54 36C54 35.1173 54.0635 34.2494 54.1863 33.4006L48 36L54.1863 38.5994Z" fill="#FFDA6A"/>
    <path d="M54.546 31.5829C54.9776 29.8718 55.6543 28.2582 56.5365 26.7815L49.8269 26.8156L54.546 31.5829Z" fill="#FFDA6A"/>
    <path d="M57.5663 25.2432C58.6081 23.8476 59.8476 22.6081 61.2432 21.5663L55.0294 19.0294L57.5663 25.2432Z" fill="#FFDA6A"/>
    <path d="M62.7815 20.5365L62.8156 13.8269L67.5829 18.546C65.8718 18.9776 64.2582 19.6543 62.7815 20.5365Z" fill="#FFDA6A"/>
    <circle cx="72" cy="36" r="15" fill="#E8B249"/>
    <path fill-rule="evenodd" clip-rule="evenodd" d="M27 54C27 66.7025 37.2975 77 50 77H80C88.8366 77 96 69.8366 96 61C96 52.1634 88.8366 45 80 45C77.0716 45 74.327 45.7867 71.9659 47.1603C69.0538 37.7978 60.3207 31 50 31C37.2975 31 27 41.2975 27 54Z" fill="#8E9195"/>
    <path fill-rule="evenodd" clip-rule="evenodd" d="M27 52C27 64.7025 37.2975 75 50 75H80C88.8366 75 96 67.8366 96 59C96 50.1634 88.8366 43 80 43C77.0716 43 74.327 43.7867 71.9659 45.1603C69.0538 35.7978 60.3207 29 50 29C37.2975 29 27 39.2975 27 52Z" fill="#C5C7C9"/>
    <path fill-rule="evenodd" clip-rule="evenodd" d="M56 88H21C13.8203 88 8 82.1797 8 75C8 67.8203 13.8203 62 21 62C21.1487 62 21.2968 62.0025 21.4443 62.0075C23.2605 53.9878 30.431 48 39 48C48.2764 48 55.9138 55.0171 56.8937 64.0328C63.1038 64.49 68 69.6732 68 76C68 82.6274 62.6274 88 56 88Z" fill="#8E9195"/>
    <path fill-rule="evenodd" clip-rule="evenodd" d="M56 86H21C13.8203 86 8 80.1797 8 73C8 65.8203 13.8203 60 21 60C21.1487 60 21.2968 60.0025 21.4443 60.0075C23.2605 51.9878 30.431 46 39 46C48.2764 46 55.9138 53.0171 56.8937 62.0328C63.1038 62.49 68 67.6732 68 74C68 80.6274 62.6274 86 56 86Z" fill="#E1E2E4"/>
    <path fill-rule="evenodd" clip-rule="evenodd" d="M78 76C78 67.1634 70.8366 60 62 60C54.4554 60 48.1304 65.2219 46.4422 72.2487C45.6537 72.0857 44.8368 72 44 72C37.3726 72 32 77.3726 32 84C32 90.6274 37.3726 96 44 96H78C83.5228 96 88 91.5228 88 86C88 80.4772 83.5228 76 78 76Z" fill="#8E9195"/>
    <path fill-rule="evenodd" clip-rule="evenodd" d="M78 74C78 65.1634 70.8366 58 62 58C54.4554 58 48.1304 63.2219 46.4422 70.2487C45.6537 70.0857 44.8368 70 44 70C37.3726 70 32 75.3726 32 82C32 88.6274 37.3726 94 44 94H78C83.5229 94 88 89.5229 88 84C88 78.4771 83.5229 74 78 74Z" fill="white"/>
</symbol>
</svg>