<svg width="16" height="16" viewBox="0 0 16 16" fill="none" xmlns="http://www.w3.org/2000/svg">
<g opacity="0.4">
<path fill-rule="evenodd" clip-rule="evenodd" d="M2 0C0.895431 0 0 0.895431 0 2V14C0 15.1046 0.895431 16 2 16H14C15.1046 16 16 15.1046 16 14V2C16 0.895431 15.1046 0 14 0H2ZM14 2H2V14H14V2Z" fill="white"/>
<path d="M6.02051 3.24316C6.41113 3.8291 7.02962 4.12207 7.87598 4.12207C8.69303 4.12207 9.30339 3.80632 9.70703 3.1748C9.91347 2.85442 10.0675 2.46282 10.1692 2H8.64112C8.61907 2.12187 8.59351 2.2319 8.56445 2.33008C8.44401 2.73698 8.21452 2.94043 7.87598 2.94043C7.56999 2.94043 7.34701 2.74349 7.20703 2.34961C7.17146 2.24629 7.14052 2.12976 7.11421 2L5.55091 2C5.64742 2.50393 5.80395 2.91832 6.02051 3.24316Z" fill="white"/>
<path d="M6.19629 11.4521L5.4834 12.3945C5.81869 12.6452 6.16048 12.8291 6.50879 12.9463C6.8571 13.0635 7.23958 13.1221 7.65625 13.1221C8.47331 13.1221 9.11296 12.8991 9.5752 12.4531C10.0374 12.0039 10.2686 11.4408 10.2686 10.7637C10.2686 10.0964 10.0651 9.57389 9.6582 9.19629C9.2513 8.81869 8.68815 8.62988 7.96875 8.62988C7.8776 8.62988 7.77832 8.63314 7.6709 8.63965C7.56348 8.6429 7.44629 8.64941 7.31934 8.65918L7.41699 7.25781H9.94629V5.99805H6.24023L5.97656 9.9043C6.21094 9.87826 6.43229 9.85872 6.64062 9.8457C6.85221 9.82943 7.04753 9.82129 7.22656 9.82129C7.7181 9.82129 8.08757 9.90755 8.33496 10.0801C8.58236 10.2526 8.70605 10.5277 8.70605 10.9053C8.70605 11.208 8.6084 11.457 8.41309 11.6523C8.21777 11.8444 7.94271 11.9404 7.58789 11.9404C7.35352 11.9404 7.11914 11.9014 6.88477 11.8232C6.65039 11.7451 6.4209 11.6214 6.19629 11.4521Z" fill="white"/>
</g>
</svg>
