<svg width="14" height="14" viewBox="0 0 14 14" fill="none" xmlns="http://www.w3.org/2000/svg">
<path d="M4.59132 10.1255C4.82492 10.6825 4.37405 11.27 3.8043 11.0694C3.02598 10.7952 2.29531 10.347 1.67285 9.7245C-0.551759 7.49988 -0.551759 3.89307 1.67285 1.66846C3.89747 -0.556153 7.50428 -0.556153 9.72889 1.66846C10.3513 2.29092 10.7996 3.02158 11.0738 3.79991C11.2744 4.36965 10.6869 4.82053 10.1299 4.58692C9.91201 4.49557 9.75009 4.3104 9.66146 4.09142C9.4529 3.57613 9.13971 3.09329 8.72189 2.67546C7.05343 1.007 4.34832 1.007 2.67986 2.67546C1.0114 4.34392 1.0114 7.04903 2.67986 8.71749C3.09769 9.13532 3.58052 9.44851 4.09581 9.65707C4.31479 9.7457 4.49996 9.90762 4.59132 10.1255Z" fill="#F8F9FA"/>
<path d="M5.82029 3.56305C6.28325 3.10009 6.08206 2.33146 5.4295 2.3846C4.67165 2.44631 3.93093 2.76706 3.35116 3.34684C2.77138 3.92661 2.45063 4.66733 2.38892 5.42518C2.33578 6.07774 3.10441 6.27893 3.56737 5.81597C3.72096 5.66238 3.80477 5.45583 3.85623 5.24481C3.93586 4.91832 4.10317 4.60884 4.35816 4.35384C4.61316 4.09885 4.92264 3.93154 5.24913 3.85191C5.46015 3.80045 5.66671 3.71664 5.82029 3.56305Z" fill="#F8F9FA"/>
<path fill-rule="evenodd" clip-rule="evenodd" d="M6.60066 5.12396C5.67927 4.76958 4.77394 5.6749 5.12832 6.5963L7.69501 13.2697C8.05772 14.2127 9.37744 14.252 9.79555 13.3322L10.9021 10.8977L13.3365 9.79119C14.2564 9.37308 14.2171 8.05337 13.2741 7.69066L6.60066 5.12396ZM8.77297 12.3697L6.52227 6.51791L12.3741 8.76861L10.2873 9.71717C10.0365 9.83116 9.83551 10.0321 9.72153 10.2829L8.77297 12.3697Z" fill="#F8F9FA"/>
</svg>
