<svg width="144" height="24" viewBox="0 0 144 24" fill="none" xmlns="http://www.w3.org/2000/svg">
<path d="M34.6184 3.1643C33.0578 3.1643 31.5947 3.31034 30.4731 3.50507V19.2779C31.3021 19.3753 32.4726 19.4726 33.9844 19.4726C36.7643 19.4726 39.0077 18.8398 40.4707 17.5254C41.69 16.4057 42.9092 14.4097 42.9092 10.9533C42.9092 8.03246 42.0313 6.08519 40.4707 4.81947C39.1052 3.74848 37.3007 3.1643 34.6184 3.1643ZM34.716 17.0385C34.2771 17.0385 33.8381 17.0385 33.5455 16.9899V5.74442C33.8869 5.69574 34.3746 5.59838 35.0086 5.59838C37.886 5.59838 39.6417 7.39959 39.6417 11.002C39.6417 15.2373 37.6421 17.0385 34.716 17.0385Z" fill="white"/>
<path d="M49.7369 7.49696C46.323 7.49696 44.421 10.3692 44.421 13.7282C44.421 17.3306 46.4693 19.57 50.0783 19.57C51.5413 19.57 52.8581 19.3266 53.8335 18.8884L53.3946 16.7465C52.6143 17.0385 51.6876 17.2333 50.566 17.2333C48.9078 17.2333 47.4935 16.4544 47.396 14.4584H54.37C54.4187 14.1176 54.4675 13.6795 54.4675 13.2414C54.4187 9.4929 52.5655 7.49696 49.7369 7.49696ZM47.3472 12.3164C47.4447 11.1481 48.0787 9.63895 49.5418 9.63895C51.0536 9.63895 51.5413 11.0994 51.5413 12.3164H47.3472Z" fill="white"/>
<path d="M63.0509 7.74037L61.5878 13.3874C61.3439 14.4097 61.1489 15.3347 60.9538 16.357H60.905C60.7099 15.3347 60.5149 14.4097 60.271 13.3874L58.7592 7.74037H55.4429L59.3444 19.3753H62.3193L66.2696 7.74037H63.0509Z" fill="white"/>
<path d="M2.04062 18.2556C1.45539 18.9858 1.01647 19.6673 0.723857 20.2515C0.626318 20.3976 0.480011 20.8357 0.480011 21.1278V21.5659C0.480011 22.2961 1.06524 22.8803 1.79678 22.8803H22.0848C22.8163 22.8803 23.4015 22.2961 23.4015 21.5659V5.98783C12.2822 7.93509 5.552 13.9229 2.04062 18.2556Z" fill="white"/>
<path d="M71.0978 12.3164H76.3649V9.78499H71.0978V5.89047H76.6575V3.31034H68.0253V19.3266H76.9989V16.7465H71.0978V12.3164Z" fill="white"/>
<path d="M88.6547 7.74037H85.3872L84.363 9.83367C84.0704 10.4179 83.7778 11.0507 83.4851 11.6836H83.4364C83.1438 11.0994 82.8512 10.5152 82.5585 9.83367L81.4368 7.74037H78.023L81.4856 13.4848L77.9742 19.3753H81.2905L82.3635 17.1359C82.6561 16.5517 82.9487 15.9189 83.2413 15.286H83.2901C83.5827 15.9189 83.8753 16.503 84.1679 17.1359L85.3384 19.3753H88.801L85.2896 13.3874L88.6547 7.74037Z" fill="white"/>
<path d="M96.5065 7.49696C94.9947 7.49696 93.8242 8.12982 93.0439 9.34686H92.9951L92.8488 7.74037H90.1665C90.2153 8.81136 90.2641 10.0284 90.2641 11.5375V24H93.3365V18.2069H93.3853C93.873 18.9858 94.8484 19.57 96.1164 19.57C98.4573 19.57 100.896 17.6714 100.896 13.4361C100.945 9.83367 99.0425 7.49696 96.5065 7.49696ZM95.4336 17.1359C94.4094 17.1359 93.3853 16.3083 93.3853 14.6531V12.4625C93.3853 11.0507 94.3119 9.93103 95.5311 9.93103C97.043 9.93103 97.8721 11.4402 97.8721 13.4848C97.8233 15.6268 96.9942 17.1359 95.4336 17.1359Z" fill="white"/>
<path d="M105.919 9.73631H105.821L105.675 7.69168H103.042C103.09 8.714 103.139 9.88235 103.139 11.3428V19.3266H106.212V13.3387C106.212 11.3428 107.285 10.4179 108.65 10.4179C108.943 10.4179 109.235 10.4179 109.43 10.4665V7.54564C109.235 7.49696 109.04 7.49696 108.748 7.49696C107.675 7.49696 106.455 8.22718 105.919 9.73631Z" fill="white"/>
<path d="M115.868 7.49696C112.454 7.49696 110.552 10.3692 110.552 13.7282C110.552 17.3306 112.6 19.57 116.209 19.57C117.672 19.57 118.989 19.3266 119.965 18.8884L119.526 16.7465C118.745 17.0385 117.819 17.2333 116.697 17.2333C115.039 17.2333 113.625 16.4544 113.527 14.4584H120.452C120.501 14.1176 120.55 13.6795 120.55 13.2414C120.55 9.4929 118.697 7.49696 115.868 7.49696ZM113.478 12.3164C113.576 11.1481 114.21 9.63894 115.673 9.63894C117.185 9.63894 117.672 11.0994 117.672 12.3164H113.478Z" fill="white"/>
<path d="M126.938 12.3164C125.622 11.7323 125.183 11.4402 125.183 10.7586C125.183 10.1258 125.67 9.63894 126.646 9.63894C127.524 9.63894 128.353 9.97972 128.84 10.2231L129.426 8.03245C128.743 7.69168 127.719 7.39959 126.548 7.39959C123.964 7.39959 122.305 9.00609 122.305 11.0507C122.305 12.3164 123.086 13.5335 125.28 14.4097C126.548 14.9452 126.938 15.3347 126.938 16.0162C126.938 16.7465 126.402 17.1846 125.329 17.1846C124.354 17.1846 123.232 16.7465 122.598 16.4057L122.013 18.645C122.793 19.0832 124.012 19.4239 125.28 19.4239C128.206 19.4239 129.865 17.9635 129.865 15.7728C129.816 14.2637 128.938 13.144 126.938 12.3164Z" fill="white"/>
<path d="M136.205 12.3164C134.888 11.7323 134.449 11.4402 134.449 10.7586C134.449 10.1258 134.937 9.63894 135.912 9.63894C136.79 9.63894 137.619 9.97972 138.107 10.2231L138.692 8.03245C138.009 7.69168 136.985 7.39959 135.814 7.39959C133.23 7.39959 131.572 9.00609 131.572 11.0507C131.572 12.3164 132.352 13.5335 134.546 14.4097C135.814 14.9452 136.205 15.3347 136.205 16.0162C136.205 16.7465 135.668 17.1846 134.595 17.1846C133.62 17.1846 132.498 16.7465 131.864 16.4057L131.279 18.645C132.059 19.0832 133.278 19.4239 134.546 19.4239C137.473 19.4239 139.131 17.9635 139.131 15.7728C139.082 14.2637 138.155 13.144 136.205 12.3164Z" fill="white"/>
<path d="M22.0848 0H1.79678C1.06524 0 0.480011 0.584179 0.480011 1.3144V13.4361C4.47908 9.24949 11.6482 4.62475 22.5237 3.35903C22.8163 3.35903 23.4015 3.21298 23.4015 2.43408V1.3144C23.4015 0.584179 22.8163 0 22.0848 0Z" fill="white"/>
<path d="M142.057 7.05882C142.398 6.96146 142.593 6.76674 142.593 6.47465C142.593 6.27992 142.545 6.13387 142.398 6.03651C142.252 5.93915 142.057 5.89047 141.764 5.89047H141.082V8.03246H141.52V7.15619H141.716C141.862 7.15619 141.959 7.25355 142.008 7.44828L142.203 7.98377H142.691L142.447 7.39959C142.301 7.20487 142.203 7.05882 142.057 7.05882ZM141.764 6.81542H141.472V6.18256H141.716C142.008 6.18256 142.106 6.27992 142.106 6.47465C142.106 6.57201 142.057 6.62069 142.008 6.71805C141.959 6.81542 141.911 6.81542 141.764 6.81542Z" fill="white"/>
<path d="M143.032 5.74442C142.691 5.40365 142.301 5.25761 141.813 5.25761C141.325 5.25761 140.886 5.40365 140.594 5.74442C140.252 6.08519 140.106 6.47465 140.106 6.96146C140.106 7.44828 140.252 7.83773 140.594 8.1785C140.935 8.47059 141.325 8.66531 141.813 8.66531C142.301 8.66531 142.691 8.51927 143.032 8.1785C143.374 7.83773 143.52 7.44828 143.52 6.96146C143.52 6.47465 143.374 6.08519 143.032 5.74442ZM142.837 7.98377C142.545 8.27586 142.203 8.42191 141.813 8.42191C141.423 8.42191 141.082 8.27586 140.789 8.03245C140.496 7.74037 140.35 7.39959 140.35 7.01014C140.35 6.62069 140.496 6.27992 140.789 5.98783C141.082 5.69574 141.423 5.5497 141.813 5.5497C142.203 5.5497 142.593 5.69574 142.837 5.98783C143.13 6.27992 143.276 6.62069 143.276 7.01014C143.227 7.35091 143.081 7.69168 142.837 7.98377Z" fill="white"/>
</svg>
