<svg width="14" height="14" viewBox="0 0 14 14" fill="none" xmlns="http://www.w3.org/2000/svg">
<g opacity="0.4">
<path d="M8.47924 1.21032L7.50015 0L6.52105 1.21032L5.11379 0.544671L4.75679 2.05994L3.20007 2.07081L3.45 3.20213C3.94444 3.07028 4.46402 2.99999 5.00001 2.99999C7.61766 2.99999 9.84379 4.67628 10.6635 7.01395C10.7745 7.00471 10.8867 6.99999 11 6.99999C11.3552 6.99999 11.6995 7.04628 12.0273 7.13315L12.8622 6.72387L11.9001 5.5L12.8622 4.27613L11.4644 3.59091L11.8002 2.07081L10.2435 2.05994L9.88651 0.544671L8.47924 1.21032Z" fill="white"/>
<path d="M5 14C2.23858 14 0 11.7614 0 9C0 6.23858 2.23858 4 5 4C7.48716 4 9.55018 5.81599 9.93544 8.19437C10.2663 8.06877 10.6251 8 11 8C12.6569 8 14 9.34315 14 11C14 12.6569 12.6569 14 11 14H5Z" fill="white"/>
</g>
</svg>
